<?xml version="1.0" standalone="no"?>
<!DOCTYPE svg PUBLIC "-//W3C//DTD SVG 20010904//EN"
 "http://www.w3.org/TR/2001/REC-SVG-20010904/DTD/svg10.dtd">
<svg version="1.0" xmlns="http://www.w3.org/2000/svg"
 width="500.000000pt" height="500.000000pt" viewBox="0 0 500.000000 500.000000"
 preserveAspectRatio="xMidYMid meet">

<g transform="translate(0.000000,500.000000) scale(0.100000,-0.100000)"
fill="#8B5292" stroke="none">
<path d="M2397 3533 c-3 -898 -4 -972 -21 -1028 -68 -227 -196 -395 -395 -523
-280 -178 -384 -276 -470 -442 -103 -197 -140 -506 -81 -662 44 -117 164 -213
283 -225 45 -5 64 -1 110 20 47 21 63 36 105 99 132 196 293 327 435 353 l37
7 0 188 0 187 -66 18 c-78 21 -169 80 -204 131 -36 54 -35 135 2 191 33 50
100 95 186 125 55 19 88 23 182 23 94 0 127 -4 182 -23 85 -30 148 -72 184
-124 39 -56 41 -137 4 -192 -35 -51 -126 -110 -204 -131 l-66 -18 0 -187 0
-187 45 -6 c117 -13 267 -128 388 -300 77 -108 99 -131 149 -152 151 -62 355
64 403 250 39 150 -3 432 -89 603 -85 169 -195 275 -451 437 -245 155 -395
367 -434 615 -7 42 -11 397 -11 993 l0 927 -100 0 -99 0 -4 -967z"/>
<path d="M2027 4460 c-423 -71 -783 -203 -1061 -387 -233 -155 -396 -384 -470
-660 -86 -323 -46 -751 96 -1025 48 -93 149 -206 232 -260 51 -32 183 -85 192
-75 2 1 8 70 14 152 15 195 50 404 100 588 49 177 76 253 101 278 37 37 101
37 139 -1 36 -36 35 -65 -9 -204 -143 -454 -174 -898 -91 -1284 l12 -53 42 84
c101 202 245 346 511 513 177 110 274 222 333 386 l27 73 3 948 3 947 -33 -1
c-18 0 -82 -9 -141 -19z m-117 -1594 c59 -39 85 -89 85 -166 0 -78 -26 -127
-88 -168 -56 -37 -153 -39 -210 -3 -76 47 -111 140 -88 229 14 51 75 117 123
131 53 16 135 6 178 -23z"/>
<path d="M2802 3533 l3 -948 27 -73 c59 -164 156 -276 333 -386 142 -90 201
-133 286 -213 108 -102 211 -250 254 -366 13 -34 21 -44 26 -35 17 31 49 222
61 361 24 296 -28 677 -137 1015 -40 124 -39 148 7 187 35 30 72 32 115 6 28
-17 36 -35 71 -143 80 -248 123 -463 143 -722 11 -130 15 -156 28 -156 9 0 45
14 81 31 259 122 409 408 427 814 20 466 -162 905 -473 1138 -236 178 -675
342 -1094 411 -52 9 -110 19 -128 22 l-33 5 3 -948z m508 -667 c59 -39 85 -89
85 -166 0 -78 -26 -127 -88 -168 -56 -37 -153 -39 -210 -3 -76 47 -111 140
-88 229 14 51 75 117 123 131 53 16 135 6 178 -23z"/>
<path d="M2341 908 c-58 -29 -162 -126 -219 -206 -44 -63 -45 -65 -26 -80 34
-26 177 -89 234 -103 71 -18 269 -18 340 0 62 15 233 92 244 110 10 16 -74
132 -148 206 -87 87 -109 95 -258 95 -106 0 -129 -3 -167 -22z"/>
</g>
</svg>
